<svg width="375" height="47" viewBox="0 0 375 47" fill="none" xmlns="http://www.w3.org/2000/svg">
<path d="M42.6035 24.55C42.5368 19.2833 44.2202 14.9 47.6535 11.4C51.1202 7.90001 55.5202 6.18334 60.8535 6.25001C66.1868 6.18334 70.5535 7.90001 73.9535 11.4C77.3868 14.9 79.0702 19.2833 79.0035 24.55C79.0035 29.9167 77.3368 34.3 74.0035 37.7C70.7035 41.0667 66.3202 42.75 60.8535 42.75C55.4202 42.75 51.0202 41.0667 47.6535 37.7C44.2868 34.3 42.6035 29.9167 42.6035 24.55ZM72.2035 24.55C72.2035 20.7833 71.1702 17.7167 69.1035 15.35C67.0702 12.9833 64.3202 11.8 60.8535 11.8C57.3868 11.8 54.6202 12.9833 52.5535 15.35C50.4868 17.7167 49.4535 20.7833 49.4535 24.55C49.4535 28.25 50.4868 31.2833 52.5535 33.65C54.6202 36.0167 57.3868 37.2 60.8535 37.2C64.3202 37.2 67.0702 36.0167 69.1035 33.65C71.1702 31.2833 72.2035 28.25 72.2035 24.55Z" fill="#11162D"/>
<path d="M85.8703 42V7.00001H98.6703C103.737 6.93334 107.987 8.51667 111.42 11.75C114.854 14.9833 116.537 19.1667 116.47 24.3C116.47 29.6667 114.787 33.9667 111.42 37.2C108.054 40.4 103.754 42 98.5203 42H85.8703ZM92.3703 36.45H98.0203C105.82 36.45 109.72 32.4333 109.72 24.4C109.72 20.7333 108.754 17.85 106.82 15.75C104.887 13.65 102.07 12.6 98.3703 12.6H92.3703V36.45Z" fill="#11162D"/>
<path d="M123.37 42V7.00001H149.07V12.6H129.87V21.2H144.27V26.7H129.87V36.45H149.07V42H123.37Z" fill="#11162D"/>
<path d="M215.087 42L212.087 33.35H197.387L194.337 42H187.337L200.587 7.00001H209.237L222.287 42H215.087ZM199.387 27.8H210.187L207.287 19.35C206.487 17.0833 206.07 14.2667 206.037 10.9H203.587C203.553 14.3 203.137 17.1333 202.337 19.4L199.387 27.8Z" fill="#11162D"/>
<path d="M227.374 42V7.00001H240.174C245.241 6.93334 249.491 8.51667 252.924 11.75C256.358 14.9833 258.041 19.1667 257.974 24.3C257.974 29.6667 256.291 33.9667 252.924 37.2C249.558 40.4 245.258 42 240.024 42H227.374ZM233.874 36.45H239.524C247.324 36.45 251.224 32.4333 251.224 24.4C251.224 20.7333 250.258 17.85 248.324 15.75C246.391 13.65 243.574 12.6 239.874 12.6H233.874V36.45Z" fill="#11162D"/>
<path d="M264.874 42V7.00001H290.574V12.6H271.374V21.2H285.774V26.7H271.374V36.45H290.574V42H264.874Z" fill="#11162D"/>
<path d="M297.54 42V7.00001H308.24L314.89 25.3C315.724 27.6667 316.174 31.1833 316.24 35.85H318.74C318.774 31.3833 319.257 27.8667 320.19 25.3L326.79 7.00001H337.19V42H330.69V26.3C330.69 21.6333 331.724 16.8 333.79 11.8L331.34 10.8L320.09 42H314.64L303.39 10.8L300.94 11.8C303.007 16.7333 304.04 21.5667 304.04 26.3V42H297.54Z" fill="#11162D"/>
<path d="M355.121 42V27.55L342.421 7.00001H350.021L354.821 15.1C355.787 16.7667 356.421 18.25 356.721 19.55C357.054 20.8167 357.221 22.4333 357.221 24.4H359.671C359.737 22.4667 359.904 20.8667 360.171 19.6C360.504 18.3 361.154 16.7667 362.121 15L366.571 7.00001H374.021L361.621 27.5V42H355.121Z" fill="#11162D"/>
<path d="M154.044 14.6916L154.044 14.6917C151.625 19.1378 151.157 23.9226 152.619 28.9987C154.001 34.2902 156.836 38.2891 161.132 40.9334L161.135 40.9352C165.439 43.5568 170.243 44.0913 175.483 42.5833C179.486 41.4843 182.626 39.6069 184.844 36.9178C187.053 34.2401 188.273 31.036 188.517 27.3368L188.564 26.6217L187.852 26.5421L181.541 25.8369L180.765 25.7503L180.709 26.5284C180.527 29.0655 179.828 31.058 178.664 32.5593C177.504 34.0559 175.834 35.1244 173.6 35.7375C170.538 36.5777 167.912 36.1845 165.645 34.6199C163.358 33.042 161.676 30.4512 160.658 26.7411C159.668 23.1327 159.813 20.1317 160.986 17.6744C162.185 15.2201 164.256 13.5697 167.289 12.7375C169.511 12.1278 171.464 12.1872 173.183 12.8588C174.906 13.532 176.468 14.8492 177.853 16.8832L178.286 17.5196L178.911 17.0699L184.15 13.2993L184.717 12.8911L184.35 12.2965C182.576 9.42322 179.982 7.36708 176.608 6.126C173.209 4.87579 169.489 4.82437 165.477 5.92422C160.321 7.26817 156.491 10.1945 154.044 14.6916Z" stroke="#11162D" stroke-width="1.5"/>
<path d="M12.3349 6.3226L12.3348 6.32267C8.04373 9.0067 5.2848 12.944 4.0641 18.0835C2.66833 23.3715 3.17233 28.2472 5.6147 32.661L5.61643 32.6641C8.07747 37.0624 11.9984 39.888 17.3031 41.1491C21.3295 42.1587 24.9868 42.0664 28.2404 40.8144C31.4802 39.5676 34.1171 37.3763 36.147 34.2743L36.5394 33.6746L35.9581 33.2553L30.8075 29.54L30.1748 29.0836L29.7437 29.7338C28.338 31.8538 26.7508 33.246 24.9993 33.9817C23.2533 34.7151 21.2742 34.8254 19.0266 34.2614C15.9469 33.4886 13.8531 31.8561 12.6471 29.3794C11.4308 26.8815 11.2389 23.7987 12.1753 20.0671C13.086 16.4379 14.6864 13.8952 16.9156 12.3314C19.1662 10.7831 21.7804 10.3631 24.8314 11.1286C27.0663 11.6894 28.7381 12.7007 29.9053 14.1303C31.0753 15.5632 31.7885 17.4779 31.9951 19.9298L32.0598 20.697L32.825 20.6123L39.2407 19.9024L39.9353 19.8256L39.9076 19.1273C39.7739 15.7529 38.525 12.6876 36.1962 9.94888C33.8502 7.19003 30.635 5.31721 26.6004 4.30397C21.4497 2.94133 16.6761 3.60828 12.3349 6.3226Z" stroke="#11162D" stroke-width="1.5"/>
</svg>
